<svg xmlns="http://www.w3.org/2000/svg" width="14.789" height="12.22" viewBox="0 0 14.789 12.22">
  <g id="Group_16086" data-name="Group 16086" transform="translate(-101.733 -3.22)">
    <g id="arrow-right" transform="translate(102.733 4)">
      <path id="Path_5168" data-name="Path 5168" d="M13.617,18.189a1,1,0,0,1-.78-1.625l2.876-3.595H5a1,1,0,0,1,0-2H17.785a1,1,0,0,1,.375.069l0,0h.009a1,1,0,0,1,.619.883q0,.021,0,.042a1,1,0,0,1-.067.359v.016a1,1,0,0,1-.151.255L14.4,17.814A1,1,0,0,1,13.617,18.189Z" transform="translate(-5.004 -6.75)" fill="#088462"/>
    </g>
    <path id="Path_5168-2" data-name="Path 5168" d="M13.617,10.97a1,1,0,0,0-.78,1.625l2.876,3.595H5a1,1,0,0,0,0,2H17.785a1,1,0,0,0,.375-.069l0,0h.009a1,1,0,0,0,.619-.883q0-.021,0-.042a1,1,0,0,0-.067-.359v-.016a1,1,0,0,0-.151-.255L14.4,11.345A1,1,0,0,0,13.617,10.97Z" transform="translate(97.728 -7.75)" fill="#088462"/>
  </g>
</svg>
