<svg xmlns="http://www.w3.org/2000/svg" width="24.323" height="24.323" viewBox="0 0 24.323 24.323">
  <path id="facebook-square" d="M19.763,0a4.394,4.394,0,0,1,3.223,1.338,4.389,4.389,0,0,1,1.338,3.223v15.2a4.567,4.567,0,0,1-4.561,4.561H16.786V14.9h3.151l.475-3.674H16.786V8.883a2.029,2.029,0,0,1,.372-1.33,1.848,1.848,0,0,1,1.449-.443l1.932-.016V3.816a21.226,21.226,0,0,0-2.819-.143A4.7,4.7,0,0,0,14.276,4.94a4.788,4.788,0,0,0-1.29,3.579v2.708H9.818V14.9h3.167v9.422H4.561a4.394,4.394,0,0,1-3.223-1.338A4.389,4.389,0,0,1,0,19.763V4.561A4.394,4.394,0,0,1,1.338,1.338,4.389,4.389,0,0,1,4.561,0Z" transform="translate(0 0)" fill="#484848"/>
</svg>
