<svg id="Group_16090" data-name="Group 16090" xmlns="http://www.w3.org/2000/svg" xmlns:xlink="http://www.w3.org/1999/xlink" width="118.649" height="127.138" viewBox="0 0 118.649 127.138">
  <defs>
    <clipPath id="clip-path">
      <rect id="Rectangle_1643" data-name="Rectangle 1643" width="118.649" height="127.138" fill="#fff"/>
    </clipPath>
  </defs>
  <g id="Group_2828" data-name="Group 2828" transform="translate(0 0)" clip-path="url(#clip-path)">
    <path id="Path_5166" data-name="Path 5166" d="M55.779,18.815a9.3,9.3,0,0,0,11.636-6.44,9.6,9.6,0,0,0-6.3-11.91,5.581,5.581,0,0,0-.931-.255,8.316,8.316,0,0,1,4.574,9.935,8,8,0,0,1-9.981,5.511A8.189,8.189,0,0,1,49.148,8.88a9.567,9.567,0,0,0,6.631,9.935M53.771,3.785l-2.29-.816,2.383-.457L53.9,0l1.183,2.194,2.309-.709-1.649,1.8L57.14,5.322,54.927,4.278,53.473,6.248ZM54.029,59.9a.409.409,0,0,1,.03.589l-.288.145-.3-.107-5.426-5.076a.43.43,0,0,1-.038-.594.421.421,0,0,1,.594-.03ZM34.411,98.558a39.951,39.951,0,0,0,49.714,0h.252v-.2a42.32,42.32,0,0,0,15.78-33.091c0-23.159-18.338-42-40.884-42s-40.9,18.839-40.9,42A42.322,42.322,0,0,0,34.107,98.309v.249Zm24.863,6.656a37.982,37.982,0,0,1-21.488-6.656H80.754a37.982,37.982,0,0,1-21.48,6.656M48.3,88.16c9.907-3.95,20.724-.26,21.5,0l-.814,9.132H49.112ZM20.351,65.27c0-22.041,17.464-39.974,38.922-39.974C80.713,25.3,98.2,43.228,98.2,65.27c0,.948-.038,1.915-.115,2.868L81.258,47.129,74.547,55.3,62.955,45.192,54.007,54.42l-7.4-6.861-5.988,7.417-4.752-4.615L20.669,70.282a38.814,38.814,0,0,1-.318-5.013m52.977-8.335-4.73,6.7L62.84,58.121l-8.992,9.718L41.905,56.244l4.87-5.977,7.439,6.883,8.858-9.157ZM21.033,72.753,36.049,53.07,53.916,70.427l9-9.735L68.773,66.3l7.908-10.71.156-.192,4.38-5.317L97.832,70.693A40.2,40.2,0,0,1,82.945,96.942l-1.5-22.209H79.22V76.04H77.555V74.733h-2.6V76.04H73.794V74.733H70.962l-.271,3.139h-2.4V79.6H66.33V77.872h-2.6V79.6H62.142V77.872h-2.5V79.6H57.937V77.872H55.28V79.6H53.837V77.872h-2.9V79.6H49.5V77.872H47.4l-.263-3.139H44.3V76.04H43.132V74.733H40.541V76.04H38.89V74.733H36.644L35.175,96.608A40.107,40.107,0,0,1,21.033,72.753m27.533,49.334c.438.323.671.493,1.137.805-.32.353-.482.537-.786.882-.455-.334-.693-.49-1.129-.844.31-.337.468-.507.778-.844m.835-1.211c.433.32.663.482,1.137.811-.312.34-.5.515-.835.855-.438-.323-.649-.479-1.09-.822.331-.34.493-.5.789-.844m-1.419,1.342c-.455-.315-.666-.5-1.123-.852.342-.323.5-.49.827-.819.452.329.657.5,1.115.819-.326.353-.5.515-.819.852m4.547-5.212c-.323.466-.485.69-.838,1.161a4.24,4.24,0,0,1,.5.77,3.155,3.155,0,0,1,.014.649c-1.572-.257-2.372-.408-3.92-.756-.257-.071-.373-.1-.641-.17-.194-.052-.31-.077-.507-.131a1.242,1.242,0,0,1-.446-.164l-.071-.173a3.714,3.714,0,0,0,.657.255c.315-.394.482-.592.8-.975a5.448,5.448,0,0,1-.83-.3c-.211-.085-.386-.17-.49-.219a6.105,6.105,0,0,1-.915-.564,10.084,10.084,0,0,0-.931-.6,2.413,2.413,0,0,0-1.624-.362,3.41,3.41,0,0,0-1.074.668l-.145.121a1.5,1.5,0,0,1,.709.025,6.428,6.428,0,0,1,1.309.455H44.1s.175.088.356.2c.142.09.241.192.441.307l-.016.063c-.066.2-.118.493-.323.49a1.282,1.282,0,0,1-.474-.1c-.559-.186-.855-.277-1.416-.482l-.145-.033-.123-.071c-.285-.082-.411-.129-.668-.214-.468-.192-.7-.282-1.17-.463l.082-.263,0-.027.1-.471a2.948,2.948,0,0,0,.019-.7v0l-.244-.792c-.4.356-.611.542-1.011.887v.027a1.631,1.631,0,0,1,.241.756l-.079.233c-.337-.164-.52-.225-.86-.392a6.765,6.765,0,0,1-.742-.323c-.252-.115-.37-.167-.608-.274l-.3-.131a2.151,2.151,0,0,0,.115-.953.932.932,0,0,0-.414-.83l-.425-.049a3.283,3.283,0,0,0-.69.334l-.43.285-.353.414a.817.817,0,0,0,.09.967,2.665,2.665,0,0,0,.874.677l-.074-.038a2.74,2.74,0,0,1-1.537.8,2.916,2.916,0,0,1-1.89-.288l-.236-.194a6.032,6.032,0,0,1-.457-.46c-.233.055-.337.1-.556.142a7.964,7.964,0,0,0,.8,1.107l.3.255a2.12,2.12,0,0,0,.945.452,1.849,1.849,0,0,0,.627.1,3.3,3.3,0,0,0,1.3-.37,2.84,2.84,0,0,0,.753-.529c.244-.249.466-.457.649-.679l.359.181c.252.112.383.173.619.288,1.479.677,2.224.986,3.755,1.556.285.107.405.137.668.247.34.121.5.17.827.277.383.134.553.2.931.3a1.686,1.686,0,0,0,1.164.058.928.928,0,0,0,.518-.49l.112-.4.093-.323.019-.112.241.145a3.132,3.132,0,0,0-.192.452,1.1,1.1,0,0,0,.123,1,1.751,1.751,0,0,0,1.038.57,3.8,3.8,0,0,0,.512.132c.263.06.4.1.66.162a43.574,43.574,0,0,0,4.9.893l.192-1.435a4.979,4.979,0,0,0,.033-1.408,7.92,7.92,0,0,0-.605-1.148m-16.418-2.64-.175-.271.216-.1.222.34.049.26Zm4.358-1.6c.351-.288.548-.414.868-.718.329.405.5.589.833.948-.351.31-.562.457-.907.745-.331-.4-.488-.594-.794-.975m-.646.405c-.337-.405-.507-.6-.819-1.013.345-.268.531-.4.885-.679.326.386.488.592.816.975-.351.271-.526.422-.882.718m-5.662,1.652c.249-.515.381-.764.663-1.282a5.919,5.919,0,0,0,.488-1.307,8.507,8.507,0,0,0-.156-1.29c-.488.329-.723.49-1.172.8a4.289,4.289,0,0,1,.178.871,1.588,1.588,0,0,1-.178.614c-.772-.433-1.181-.649-1.931-1.123a4.781,4.781,0,0,0-.542-.331c-.178-.129-.263-.181-.427-.288a1.45,1.45,0,0,1-.389-.318l-.022-.192a5.714,5.714,0,0,0,.545.433c.408-.255.633-.392,1.035-.644-.337-.282-.567-.455-.677-.553l-.389-.359a6.97,6.97,0,0,1-.72-.855,9.531,9.531,0,0,0-.674-.863,2.379,2.379,0,0,0-1.427-.866,3.365,3.365,0,0,0-1.227.277l-.186.055a1.8,1.8,0,0,1,.657.266,6.086,6.086,0,0,1,1.134.866,2.145,2.145,0,0,1,.277.318,2.675,2.675,0,0,1,.312.452l-.016.016c-.123.178-.277.438-.488.356l-.394-.238c-.485-.345-.723-.523-1.2-.9l-.112-.1-.131-.085c-.222-.178-.323-.26-.556-.455l-.222-.159a1.974,1.974,0,0,0,.329-.923.959.959,0,0,0-.214-.882l-.416-.151a2.915,2.915,0,0,0-.748.153l-.457.178a1.687,1.687,0,0,0-.477.29.828.828,0,0,0-.11.961,2.474,2.474,0,0,0,.709.887l-.068-.033a2.752,2.752,0,0,1-1.7.372,2.679,2.679,0,0,1-1.758-.745l-.23-.225c-.112-.241-.189-.342-.312-.578h-.6a8.692,8.692,0,0,0,.556,1.287l.2.337a2.815,2.815,0,0,0,.857.668,2.521,2.521,0,0,0,.578.23,3.224,3.224,0,0,0,1.348-.047,3.187,3.187,0,0,0,.887-.32c.274-.186.545-.337.764-.493l.288.233.57.463c.279.222.425.307.7.534.323.23.466.351.77.578a1.857,1.857,0,0,0,1.115.444.915.915,0,0,0,.619-.307l.277-.345.145-.277.058-.093.159.178c-.131.192-.181.285-.312.455a1.09,1.09,0,0,0-.159.942,1.9,1.9,0,0,0,.8.874c.186.131.271.183.466.307s.342.2.562.34c1.074.674,1.616.992,2.756,1.594m-8.584-7.387-.271-.31-.134-.194.016-.066.244-.077.145.386Zm8.724,2.928c-.266-.427-.427-.633-.7-1.082.394-.222.592-.356.959-.6.285.452.414.663.718,1.079-.4.249-.592.37-.975.6m11.46,5.023c-.362-.334-.551-.52-.926-.874.32-.331.485-.474.808-.808.359.353.523.534.912.877-.3.34-.477.479-.794.805m-15.051-7.352c-.244-.457-.373-.671-.6-1.131l1-.5c.236.446.351.655.608,1.107-.389.208-.6.31-1.011.52m-8.836-1.205c-.077-.2-.1-.3-.186-.488l.37-.312.167-.159c.414-.422,1.159-1.389,2.26-2.843.145-.238.446-.614.822-1.12.137-.063.334-.129.575-.211.112-.047.493-.178,1.153-.364-.567.761-.824,1.126-1.361,1.9-.219.312-.6.841-1.12,1.556a10.673,10.673,0,0,1-1.016,1.257,1.7,1.7,0,0,1-.7.515c-.2.077-.507.145-.961.268m46.493,9.124c-.446-.167-.7-.238-1.145-.425.153-.425.23-.627.405-1.068.446.178.679.271,1.1.416-.134.435-.211.652-.364,1.076M63.985,120.9a12.272,12.272,0,0,0,1.2.5c-.216.416-.351.635-.583,1.03-.446-.184-.7-.288-1.164-.507.214-.411.312-.619.545-1.027m-.446.646c-.252.394-.329.6-.564,1.016-.5-.219-.753-.331-1.219-.54a10.5,10.5,0,0,1,.562-1.03c.466.238.7.337,1.222.553m-4.344-.556c.485.241.7.359,1.183.605-.233.378-.367.583-.6.981-.485-.233-.737-.362-1.183-.6.233-.411.351-.6.6-.983m12.679-2.334a4.416,4.416,0,0,1-2.23,1.227c-1.531.216-2.284.3-3.837.43h-.214c-1.3.1-1.92.137-3.216.159-.252.005-.389.016-.66.016-1.263.011-1.92,0-3.221-.077h-.074l-.274-.011a3.329,3.329,0,0,1-1.181,1.942,2.886,2.886,0,0,1-2.126.57,2.223,2.223,0,0,1-1.06-.375c-.29-.184-.414-.312-.414-.4,0-.038.184-.052.567-.052a6.2,6.2,0,0,0,1.328-.142,3.863,3.863,0,0,0,1.569-.726,2.107,2.107,0,0,0,.677-.97,2.9,2.9,0,0,1-.737-.482c.06-.614.077-.923.115-1.545a2.936,2.936,0,0,0,.934.679c.268.14.151.194.734.216.679.036,1.027.036,1.687.052a2.081,2.081,0,0,0-.1-.772,1.725,1.725,0,0,0-.562-.657c.271-.509.427-.77.66-1.29a4.354,4.354,0,0,1,.485.671,4.617,4.617,0,0,1,.408,2.057H61.7c.249,0,.383-.008.679-.008.463-.016.7-.016,1.161-.027a4.185,4.185,0,0,1,.5-.03h.019a1.319,1.319,0,0,0-.523-.833l-.038-.016c.194-.488.31-.748.523-1.244l.523.627h.016a3.611,3.611,0,0,1,.255.638l.079.474.036.016.019.271c.214-.005.331-.005.545-.016l.233-.041c.249-.019.37-.019.638-.049,1.085-.1,1.63-.145,2.714-.31a2.438,2.438,0,0,0-2.947-.323,2.757,2.757,0,0,1,.5-1.1,1.778,1.778,0,0,1,1.008-.509,2.933,2.933,0,0,1,1.435.375,13.3,13.3,0,0,1,1.337.808c.255.14.37.205.427.23a1.152,1.152,0,0,0,.425.175,1.822,1.822,0,0,0,.545.068l.37-.036s-.118.134-.312.342m22.121-12.611a2.651,2.651,0,0,0-1.419.416,1.523,1.523,0,0,0-.578.9,2.514,2.514,0,0,0,.153,1.1,2.325,2.325,0,0,1,2.6-1.145c-.619.5-.97.753-1.627,1.233H93.1l-.019.036-.058.044-.022.014-.019.014a1.873,1.873,0,0,1-1.723.457,8.181,8.181,0,0,1-.756-.446,10.126,10.126,0,0,0-1.224-.575,4.529,4.529,0,0,1-.871-.427l.077-.079c.97-1.548,1.435-2.306,2.306-3.881-.214-.446-.31-.649-.523-1.09-.814,1.515-1.26,2.26-2.189,3.744-.233.367-.408.7-.564,1.005a.79.79,0,0,0,.351.92c.5.241.756.359,1.279.578l.408.186a1.731,1.731,0,0,1,.83.553l.14.5a.694.694,0,0,1-.29.455c-.5.323-.778.468-1.263.805l-.115.068-.293.189a2.179,2.179,0,0,0-.734-.594,1.088,1.088,0,0,0-.874-.074l-.252.331a1.8,1.8,0,0,0-.058.718l.058.474a.974.974,0,0,0,.156.507.839.839,0,0,0,.874.389,2.478,2.478,0,0,0,1.008-.362l-.079.066a2.645,2.645,0,0,1-.019,1.6,2.29,2.29,0,0,1-1.046,1.328l-.29.121c-.233.047-.351.085-.583.151a2.094,2.094,0,0,0-.115.526,9.118,9.118,0,0,0,1.318-.142.827.827,0,0,0,.348-.1,1.919,1.919,0,0,0,.814-.523l.331-.46a2.974,2.974,0,0,0,.233-1.2,3.024,3.024,0,0,0-.1-.857c-.115-.318-.194-.578-.293-.833l.37-.238.1-.066c.5-.3.734-.468,1.219-.781a1.238,1.238,0,0,0,.427-.583,2.577,2.577,0,0,0,.156-.841,2.847,2.847,0,0,0,1.005.052,1.992,1.992,0,0,0,.972-.4l.268-.2c.855-.63,1.279-.953,2.093-1.583a4.006,4.006,0,0,0,1.224-2.013,2.243,2.243,0,0,0,.058-.422l-.274.2a1.773,1.773,0,0,1-.463.189,1.247,1.247,0,0,1-.446.074c-.058-.005-.194-.005-.463-.005a13.538,13.538,0,0,0-1.512-.027m-6.379,6.114c-.175.082-.271.082-.31.044l.038-.238a.878.878,0,0,1,.389-.016l.214.1Zm-9.809,3c-.5-.071-.756-.107-1.279-.17.077-.436.1-.635.137-1.071.523.06.775.1,1.3.14-.077.436-.1.638-.153,1.1m-1.474.523c-.5-.052-.775-.071-1.318-.129.077-.449.1-.652.173-1.093.5.079.8.093,1.3.148a9.463,9.463,0,0,1-.156,1.074m9.713-2.547-.019-.016-.175-.107a3.27,3.27,0,0,0-.66-.3c-.485-.145-.871-.288-1.161-.389l-.216.082a1.73,1.73,0,0,0-.52,1.211,3.29,3.29,0,0,0-.077.43v.025c-.022.23-.06.422-.079.567-.038.184-.058.282-.1.449l-.019.027c0,.055-.06.148-.271.268l-.389.227c-.156.071-.214.126-.389.222l-.211-.222-.329-.345a3.479,3.479,0,0,0-.625-.422v-.014l-.794-.263c.041.52.06.759.1,1.274h.019a1.562,1.562,0,0,1,.989.455c-.778.367-1.142.559-1.958.893a23.967,23.967,0,0,1-2.539.948,5.129,5.129,0,0,1-1.452.214,1.375,1.375,0,0,1-1.107-.449c-.446-.31-.737-1.493-.737-1.493a6.752,6.752,0,0,0-.214.937,1.752,1.752,0,0,0,.137,1.033,1.947,1.947,0,0,0,1.589,1.181,4.914,4.914,0,0,0,2.268-.216c.331-.1.5-.167.833-.282a24.46,24.46,0,0,0,5.41-2.547,2.3,2.3,0,0,0,.833-.7,1.506,1.506,0,0,0,.255-.646,3.188,3.188,0,0,0,1.86-.677l.077-.066c.619-.526-.293-1.255-.329-1.293m-1.279.72a2.4,2.4,0,0,1-.583.088l.019-.282.1-.238a3.949,3.949,0,0,1,.814.282Zm-13.958,7.056c.95-.386,1.416-.6,2.325-1a1.364,1.364,0,0,1-.466.74c-.348.225-2.131.789-2.284.953.17-.271.268-.408.425-.69m44.373-42.938c2.6-1.471,3.41-5.095,3.41-5.095s-4.013-.422-6.434,1.512a9.8,9.8,0,0,0-2.287,3.183,52.347,52.347,0,0,0,1.087-7.218,11.62,11.62,0,0,0,5.248-2.476c2.271-1.854,2.446-5.508,2.446-5.508s-3.939.31-5.952,2.586a10.153,10.153,0,0,0-1.649,3.364,55.319,55.319,0,0,0-.271-7.4,11.722,11.722,0,0,0,4.752-3.325c1.879-2.2,1.452-5.752,1.452-5.752s-3.761,1-5.311,3.522a10.169,10.169,0,0,0-1.085,3.917A59.24,59.24,0,0,0,109,51.613a11.369,11.369,0,0,0,4.111-4.1c1.452-2.438.466-5.79.466-5.79s-3.492,1.608-4.558,4.347a11.184,11.184,0,0,0-.37,4.377,55.315,55.315,0,0,0-2.986-7.705A10.931,10.931,0,0,0,109,38.1c.989-2.624-.542-5.686-.542-5.686s-3.062,2.153-3.681,5.007a10.629,10.629,0,0,0,.386,4.218,52.7,52.7,0,0,0-4.207-7.028,11.138,11.138,0,0,0,2.367-5.01c.52-2.709-1.457-5.371-1.457-5.371s-2.6,2.6-2.712,5.437a9.9,9.9,0,0,0,.909,3.739,39.031,39.031,0,0,0-5.193-5.7,11.242,11.242,0,0,0,1.493-5.36c.058-2.693-2.287-4.933-2.287-4.933s-2.1,2.977-1.726,5.733a11.133,11.133,0,0,0,1.879,3.983,58.418,58.418,0,0,0-6.472-5.089,11.182,11.182,0,0,0,.619-5.536c-.408-2.613-3.043-4.358-3.043-4.358s-1.534,3.238-.737,5.821a12.214,12.214,0,0,0,2.791,3.832c-1.474-.972-2.928-1.813-4.246-2.52A7.038,7.038,0,0,0,79.765,16.2a8.494,8.494,0,0,0-3.646.058c-1.863-.608-2.925-.83-2.849-.866a13.193,13.193,0,0,0,2.5.94l-.137.014a8.254,8.254,0,0,0,3.317,3.112,5.66,5.66,0,0,0,3.953.112,54.18,54.18,0,0,1,5.388,3.432c-.249-.09-3.177-1.3-4.941-1.016-2.657.359-4.807,3.2-4.807,3.2s2.693,1.657,5.155.882a9.868,9.868,0,0,0,4.613-3.049,58.127,58.127,0,0,1,5.371,4.415,10.415,10.415,0,0,0-4.456-.761c-2.6.142-4.6,2.717-4.6,2.717s3.024,1.928,5.659,1.353a10.1,10.1,0,0,0,3.646-2.175c.115-.156.274-.334.408-.52a43.053,43.053,0,0,1,6.59,7.817c-.466-.422-2.714-2.38-4.421-2.75-2.734-.581-5.815,1.4-5.815,1.4s2.073,2.6,4.73,2.728a10.2,10.2,0,0,0,5.566-1.268,52.853,52.853,0,0,1,4.068,7.439,11.026,11.026,0,0,0-3.509-3.021c-2.635-1.074-6.086.34-6.086.34s1.589,3,4.265,3.61a10.9,10.9,0,0,0,5.662-.194,61.078,61.078,0,0,1,2.676,7.727,10.735,10.735,0,0,0-2.851-3.391c-2.441-1.575-6.166-.767-6.166-.767s1.107,3.306,3.684,4.413a10.651,10.651,0,0,0,5.6.83,51.582,51.582,0,0,1,1.4,8.171,11.113,11.113,0,0,0-2.306-4c-2.169-2.013-6.048-1.9-6.048-1.9s.542,3.544,2.945,5.095a11.528,11.528,0,0,0,5.506,1.882,48.062,48.062,0,0,1-.038,8.184,12.472,12.472,0,0,0-1.627-4.459c-1.863-2.419-5.779-2.988-5.779-2.988s-.058,3.643,2.076,5.659a11.416,11.416,0,0,0,5.234,2.865,46.266,46.266,0,0,1-1.359,7.163l-.055.268a11.457,11.457,0,0,0-.855-4.361c-1.454-2.772-5.292-4.062-5.292-4.062s-.677,3.659,1.123,6.075a11.643,11.643,0,0,0,4.654,3.788,46.018,46.018,0,0,1-2.58,7.152,12.1,12.1,0,0,0-.074-4.635c-.97-3.049-4.615-5.04-4.615-5.04s-1.337,3.55.058,6.289a12.44,12.44,0,0,0,4.013,4.681,48.891,48.891,0,0,1-3.585,6.171,10.729,10.729,0,0,0,.562-4.229c-.446-3.238-3.742-5.9-3.742-5.9s-1.958,3.32-1.008,6.325a12.633,12.633,0,0,0,3.12,5.314c-.173.257-.367.49-.559.748-1.493-.849-2.969-1.7-4.4-2.553l-.66-.408-.466.625c-7.7,10.135-20.606,16.363-34.543,16.681a43.07,43.07,0,0,1-34.8-16.963l-.466-.635-.663.4c-1.482.9-2.983,1.761-4.495,2.651l-.4-.542a12.863,12.863,0,0,0,3.125-5.314c.918-3-1.016-6.325-1.016-6.325s-3.323,2.662-3.769,5.9a11.15,11.15,0,0,0,.583,4.229,50.348,50.348,0,0,1-3.6-6.171,12.464,12.464,0,0,0,4.013-4.681c1.4-2.739.077-6.289.077-6.289s-3.64,1.991-4.615,5.04a12.153,12.153,0,0,0-.088,4.635,47.148,47.148,0,0,1-2.572-7.152A11.739,11.739,0,0,0,15.4,76.56c1.808-2.416,1.12-6.075,1.12-6.075s-3.854,1.29-5.3,4.062a11.644,11.644,0,0,0-.841,4.366l-.06-.274a42.9,42.9,0,0,1-1.337-7.163A11.545,11.545,0,0,0,14.2,68.611c2.134-2.016,2.073-5.659,2.073-5.659s-3.928.57-5.785,2.988a12.417,12.417,0,0,0-1.616,4.487,48.69,48.69,0,0,1-.049-8.212,11.517,11.517,0,0,0,5.511-1.882c2.416-1.55,2.942-5.095,2.942-5.095s-3.873-.118-6.067,1.9A12,12,0,0,0,8.9,61.12a55.329,55.329,0,0,1,1.419-8.16,10.663,10.663,0,0,0,5.6-.83c2.575-1.107,3.687-4.413,3.687-4.413s-3.728-.808-6.166.767a10.624,10.624,0,0,0-2.84,3.391,54.6,54.6,0,0,1,2.7-7.727,10.725,10.725,0,0,0,5.632.194c2.651-.611,4.276-3.61,4.276-3.61s-3.462-1.413-6.075-.34a11.008,11.008,0,0,0-3.512,3.021,52.822,52.822,0,0,1,4.059-7.439,10.158,10.158,0,0,0,5.555,1.268c2.676-.131,4.733-2.728,4.733-2.728s-3.12-1.978-5.812-1.4c-1.7.364-3.89,2.271-4.407,2.742a42.166,42.166,0,0,1,6.393-7.631,10.434,10.434,0,0,0,4.536,2.388c2.542.594,5.147-1.315,5.147-1.315s-2.4-2.717-5.089-2.909a8.734,8.734,0,0,0-3.487.8,59.183,59.183,0,0,1,5.092-4.174,10.1,10.1,0,0,0,4.615,3.049c2.462.775,5.169-.882,5.169-.882s-2.167-2.84-4.81-3.2c-1.767-.279-4.662.89-4.947,1.016a50.609,50.609,0,0,1,5.341-3.383,5.559,5.559,0,0,0,3.794-.162,8.263,8.263,0,0,0,3.328-3.112h-.019a13.374,13.374,0,0,0,2.6-.953c.074.036-1.044.26-2.947.887a8.863,8.863,0,0,0-3.772-.079,7.242,7.242,0,0,0-3.435,3.227c-1.274.677-2.6,1.452-4.01,2.358a10.923,10.923,0,0,0,2.8-3.832c.814-2.583-.7-5.821-.7-5.821s-2.66,1.745-3.032,4.358a10.231,10.231,0,0,0,.605,5.536,52.119,52.119,0,0,0-6.481,5.108,12,12,0,0,0,1.879-4C26.7,20.382,24.6,17.4,24.6,17.4s-2.358,2.241-2.3,4.933a11.026,11.026,0,0,0,1.512,5.371,39.021,39.021,0,0,0-5.2,5.692,10.224,10.224,0,0,0,.915-3.739c-.1-2.838-2.725-5.437-2.725-5.437s-1.969,2.662-1.438,5.371a11.033,11.033,0,0,0,2.345,5.01,54.245,54.245,0,0,0-4.191,7.028,10.926,10.926,0,0,0,.362-4.218c-.6-2.854-3.657-5.007-3.657-5.007S8.68,35.471,9.664,38.1a11.157,11.157,0,0,0,3.3,4.648,57.7,57.7,0,0,0-2.953,7.705,11.177,11.177,0,0,0-.351-4.377C8.565,43.332,5.1,41.725,5.1,41.725s-1,3.353.441,5.79a11.263,11.263,0,0,0,4.12,4.1,61.408,61.408,0,0,0-1.6,7.678,10.81,10.81,0,0,0-1.057-3.917c-1.561-2.525-5.325-3.522-5.325-3.522S1.252,55.4,3.123,57.6A11.728,11.728,0,0,0,7.88,60.928a51.488,51.488,0,0,0-.274,7.4A9.959,9.959,0,0,0,5.949,64.96C3.944,62.684,0,62.375,0,62.375s.2,3.654,2.446,5.508a11.656,11.656,0,0,0,5.259,2.476,53.127,53.127,0,0,0,1.068,7.218A9.757,9.757,0,0,0,6.5,74.394C4.087,72.46.071,72.882.071,72.882s.805,3.624,3.421,5.095a11.707,11.707,0,0,0,5.744,1.512,51.776,51.776,0,0,0,2.071,6.667A9.437,9.437,0,0,0,8.62,83.57c-2.753-1.5-6.719-.348-6.719-.348S3.344,86.733,6.2,87.714a11.73,11.73,0,0,0,5.99.482,49.539,49.539,0,0,0,3.369,6.338,10.652,10.652,0,0,0-3.287-2.249c-3.043-.994-6.812.885-6.812.885s2.038,3.268,5.106,3.717a11.939,11.939,0,0,0,6.147-.594c.337.485.685.97,1.038,1.433-2.06,1.2-4.161,2.369-6.259,3.5l-.866.46.553.83.121.153a207.982,207.982,0,0,0,10.247,18.325c1.821-1.548,2.829-2.421,4.41-3.846a60.433,60.433,0,0,0,33.379,9.989h.134a60.918,60.918,0,0,0,33.365-9.968c1.528,1.4,2.558,2.262,4.339,3.777a201.09,201.09,0,0,0,10.277-18.155l.562-.819-.874-.471c-2.15-1.153-4.284-2.323-6.4-3.55.405-.551.814-1.1,1.222-1.66a11.865,11.865,0,0,0,6.127.594c3.062-.449,5.117-3.717,5.117-3.717s-3.783-1.879-6.8-.885a10.652,10.652,0,0,0-3.3,2.249A58.514,58.514,0,0,0,106.5,88.2a11.593,11.593,0,0,0,5.952-.482c2.849-.981,4.3-4.492,4.3-4.492s-3.955-1.148-6.708.348a9.323,9.323,0,0,0-2.7,2.586,47.093,47.093,0,0,0,2.073-6.667,11.732,11.732,0,0,0,5.76-1.512m-9.732,24.633c-9.869,14.019-27.41,22.707-45.984,22.74h-.134c-18.683,0-36.268-8.806-46.167-23.03,3.566-1.915,7.092-3.95,10.576-6a44.757,44.757,0,0,0,35.726,17.032c14.172-.32,27.374-6.555,35.416-16.76,3.435,2.063,7,4.092,10.567,6.023M51.747,35.89l.038.027c-.038-.293-.17-.835.011-1.071a2.038,2.038,0,0,1,1.211.52,2.8,2.8,0,0,1,.742,1.013,2.305,2.305,0,0,1,.181.666,4.3,4.3,0,0,0,.709,1.9c.89,1.326,2.539,1.983,4.826,1.811l.194-.025.194.164c.194.181.408.414.6.6a2.831,2.831,0,0,1,.6.931l.041.208c.833-.323,1.685-.682,2.556-1.011a14.956,14.956,0,0,1-2.964-2.158l-.37-.5a.943.943,0,0,1-.194-.655A6.116,6.116,0,0,0,65.111,34.1a8.227,8.227,0,0,1-2.5.564,8.743,8.743,0,0,1-2.772-.219,1,1,0,0,1,.079-.718,6.742,6.742,0,0,1,1.044-1.55,10.041,10.041,0,0,0-2.986.786A2.748,2.748,0,0,0,56.231,35a4.155,4.155,0,0,0-1.849-1.367A2.459,2.459,0,0,0,53,33.576a2.954,2.954,0,0,0-1.044.562c-.205-.181-.14-.679-.022-.909a1.461,1.461,0,0,0,1.906-.885,1.831,1.831,0,0,0-1.413.11l.252-.49.09-.142.23.164a1.263,1.263,0,0,0,.868.148,2.24,2.24,0,0,0,.978-.455,1.054,1.054,0,0,0-.814-.57,2.886,2.886,0,0,0,1.961-.972,1.03,1.03,0,0,0-.682-.383,1.994,1.994,0,0,0-1.216.383,7.765,7.765,0,0,0-.846.759,2.446,2.446,0,0,0-.194-1.213,1.113,1.113,0,0,0-.811.638,1.262,1.262,0,0,0,.241,1.123,4,4,0,0,0-.411.622,1.507,1.507,0,0,0-.507-1.17.96.96,0,0,0-.54,1.035,2.263,2.263,0,0,0,.592,1.016c-.219.74-.592,2.438.131,2.945m1.805-1.912.23.134-.26.09-.225-.14Z" transform="translate(0 0)" fill="#fff" fill-rule="evenodd"/>
  </g>
</svg>
