<svg xmlns="http://www.w3.org/2000/svg" width="27.543" height="28.11" viewBox="0 0 27.543 28.11">
  <path id="google" d="M14.055,12.042H27.323a13.306,13.306,0,0,1,.219,2.343,14.824,14.824,0,0,1-1.666,7.092,12.026,12.026,0,0,1-4.748,4.877,14.033,14.033,0,0,1-7.074,1.757A13.816,13.816,0,0,1,8.583,27a13.776,13.776,0,0,1-7.476-7.476,14.076,14.076,0,0,1,0-10.944A13.776,13.776,0,0,1,8.583,1.107,13.816,13.816,0,0,1,14.055,0,13.318,13.318,0,0,1,23.48,3.679L19.655,7.357a7.737,7.737,0,0,0-5.6-2.178A8.4,8.4,0,0,0,9.69,6.369a8.89,8.89,0,0,0-4.346,7.687A8.89,8.89,0,0,0,9.69,21.742a8.4,8.4,0,0,0,4.365,1.189,9.322,9.322,0,0,0,2.928-.44,7.405,7.405,0,0,0,2.2-1.1,7.911,7.911,0,0,0,1.5-1.5,7.024,7.024,0,0,0,.942-1.592,6.68,6.68,0,0,0,.412-1.427H14.055Z" fill="#fff"/>
</svg>
