<svg id="Group_2829" data-name="Group 2829" xmlns="http://www.w3.org/2000/svg" xmlns:xlink="http://www.w3.org/1999/xlink" width="91.614" height="98.169" viewBox="0 0 91.614 98.169">
  <defs>
    <clipPath id="clip-path">
      <rect id="Rectangle_1643" data-name="Rectangle 1643" width="91.614" height="98.169" fill="#fff"/>
    </clipPath>
  </defs>
  <g id="Group_2828" data-name="Group 2828" transform="translate(0 0)" clip-path="url(#clip-path)">
    <path id="Path_5166" data-name="Path 5166" d="M43.069,14.528a7.179,7.179,0,0,0,8.984-4.972A7.413,7.413,0,0,0,47.189.36a4.31,4.31,0,0,0-.719-.2A6.421,6.421,0,0,1,50,7.834,6.177,6.177,0,0,1,42.3,12.089a6.323,6.323,0,0,1-4.346-5.232,7.387,7.387,0,0,0,5.12,7.671m-1.55-11.6-1.768-.63,1.84-.353L41.621,0l.914,1.694,1.783-.548-1.273,1.39L44.12,4.109,42.412,3.3,41.288,4.824Zm.2,43.331a.316.316,0,0,1,.023.455l-.222.112-.231-.082L37.1,42.819a.332.332,0,0,1-.03-.459.325.325,0,0,1,.459-.023ZM26.57,76.1a30.848,30.848,0,0,0,38.387,0h.195v-.152A32.677,32.677,0,0,0,77.336,50.4c0-17.882-14.16-32.429-31.568-32.429S14.189,32.516,14.189,50.4A32.679,32.679,0,0,0,26.336,75.908V76.1Zm19.2,5.139A29.328,29.328,0,0,1,29.176,76.1H62.354A29.328,29.328,0,0,1,45.768,81.24M37.3,68.072c7.65-3.05,16-.2,16.6,0l-.628,7.051H37.921ZM15.714,50.4c0-17.019,13.485-30.866,30.054-30.866S75.824,33.378,75.824,50.4c0,.732-.03,1.478-.089,2.214L62.743,36.39,57.561,42.7l-8.951-7.806L41.7,42.02l-5.717-5.3L31.361,42.45l-3.669-3.564L15.96,54.268a29.97,29.97,0,0,1-.245-3.87M56.62,43.962l-3.653,5.173-4.446-4.257-6.943,7.5-9.221-8.953,3.76-4.615,5.744,5.315,6.84-7.07ZM16.241,56.176l11.594-15.2,13.8,13.4,6.952-7.517,4.52,4.329,6.106-8.27.121-.148,3.382-4.105L75.54,54.585A31.042,31.042,0,0,1,64.046,74.853L62.891,57.7H61.169v1.009H59.883V57.7h-2v1.009h-.9V57.7H54.793l-.209,2.424H52.728v1.33H51.216v-1.33h-2v1.33H47.982v-1.33H46.053v1.33H44.736v-1.33H42.684v1.33H41.57v-1.33H39.334v1.33H38.218v-1.33H36.6L36.4,57.7H34.205v1.009h-.9V57.7h-2v1.009H30.028V57.7H28.294L27.16,74.6a30.969,30.969,0,0,1-10.92-18.419M37.5,94.268c.338.25.518.381.878.622-.247.273-.372.415-.607.681-.351-.258-.535-.379-.871-.651l.6-.651m.645-.935c.334.247.512.372.878.626-.241.262-.385.4-.645.66-.338-.25-.5-.37-.842-.634.256-.262.381-.387.609-.651m-1.1,1.036c-.351-.243-.514-.385-.867-.658.264-.25.389-.379.639-.632.349.254.508.383.861.632-.252.273-.387.4-.632.658m3.511-4.025c-.25.36-.374.533-.647.9a3.274,3.274,0,0,1,.387.594,2.436,2.436,0,0,1,.011.5c-1.214-.2-1.832-.315-3.027-.584-.2-.055-.288-.08-.495-.131-.15-.04-.239-.059-.391-.1a.959.959,0,0,1-.345-.127L36,91.261a2.868,2.868,0,0,0,.508.2c.243-.3.372-.457.615-.753a4.207,4.207,0,0,1-.641-.228c-.163-.066-.3-.131-.379-.169a4.714,4.714,0,0,1-.706-.436,7.786,7.786,0,0,0-.719-.465,1.864,1.864,0,0,0-1.254-.279,2.633,2.633,0,0,0-.829.516l-.112.093a1.157,1.157,0,0,1,.548.019,4.963,4.963,0,0,1,1.011.351h.013s.135.068.275.157c.11.07.186.148.341.237l-.013.049c-.051.157-.091.381-.25.379a.99.99,0,0,1-.366-.078c-.431-.144-.66-.214-1.093-.372l-.112-.025-.1-.055c-.22-.063-.317-.1-.516-.165-.362-.148-.544-.218-.9-.357l.063-.2,0-.021.078-.364a2.277,2.277,0,0,0,.015-.539v0l-.188-.611c-.311.275-.472.419-.78.685v.021a1.259,1.259,0,0,1,.186.584l-.061.18c-.26-.127-.4-.173-.664-.3a5.223,5.223,0,0,1-.573-.25c-.195-.089-.286-.129-.47-.211l-.228-.1A1.661,1.661,0,0,0,28.789,88a.72.72,0,0,0-.319-.641l-.328-.038a2.535,2.535,0,0,0-.533.258l-.332.22L27,88.12a.631.631,0,0,0,.07.747,2.058,2.058,0,0,0,.675.522l-.057-.03a2.116,2.116,0,0,1-1.187.618,2.252,2.252,0,0,1-1.459-.222l-.182-.15a4.655,4.655,0,0,1-.353-.355c-.18.042-.26.076-.429.11a6.149,6.149,0,0,0,.62.854l.228.2a1.637,1.637,0,0,0,.73.349,1.428,1.428,0,0,0,.484.074,2.544,2.544,0,0,0,1-.286,2.193,2.193,0,0,0,.582-.408c.188-.192.36-.353.5-.525l.277.14c.195.087.3.133.478.222,1.142.522,1.717.761,2.9,1.2.22.082.313.106.516.19.262.093.389.131.639.214.3.1.427.152.719.235a1.3,1.3,0,0,0,.9.044.717.717,0,0,0,.4-.379l.087-.307.072-.25.015-.087.186.112a2.418,2.418,0,0,0-.148.349.847.847,0,0,0,.1.77,1.352,1.352,0,0,0,.8.44,2.932,2.932,0,0,0,.4.1c.2.047.311.074.51.125a33.644,33.644,0,0,0,3.786.689L41,92.318a3.844,3.844,0,0,0,.025-1.087,6.115,6.115,0,0,0-.467-.886M27.884,88.306l-.135-.209.167-.078.171.262.038.2Zm3.365-1.233c.271-.222.423-.319.67-.554.254.313.385.455.643.732-.271.239-.434.353-.7.575-.256-.307-.376-.459-.613-.753m-.5.313c-.26-.313-.391-.465-.632-.783.266-.207.41-.309.683-.524.252.3.376.457.63.753-.271.209-.406.326-.681.554m-4.372,1.275c.192-.4.294-.59.512-.99a4.571,4.571,0,0,0,.376-1.009,6.568,6.568,0,0,0-.121-1c-.376.254-.558.379-.905.618a3.311,3.311,0,0,1,.137.673,1.227,1.227,0,0,1-.137.474c-.6-.334-.912-.5-1.491-.867a3.691,3.691,0,0,0-.419-.256c-.137-.1-.2-.14-.33-.222a1.12,1.12,0,0,1-.3-.245l-.017-.148a4.413,4.413,0,0,0,.421.334c.315-.2.489-.3.8-.5-.26-.218-.438-.351-.522-.427l-.3-.277a5.382,5.382,0,0,1-.556-.66A7.359,7.359,0,0,0,23,83.5a1.837,1.837,0,0,0-1.1-.668,2.6,2.6,0,0,0-.948.214l-.144.042a1.386,1.386,0,0,1,.508.205,4.7,4.7,0,0,1,.876.668,1.656,1.656,0,0,1,.214.245,2.066,2.066,0,0,1,.241.349l-.013.013c-.1.137-.214.338-.376.275l-.3-.184c-.374-.266-.558-.4-.928-.7l-.087-.078-.1-.066c-.171-.137-.25-.2-.429-.351l-.171-.123a1.524,1.524,0,0,0,.254-.713.741.741,0,0,0-.165-.681l-.321-.116a2.251,2.251,0,0,0-.577.118l-.353.137a1.3,1.3,0,0,0-.368.224.64.64,0,0,0-.085.742,1.911,1.911,0,0,0,.548.685l-.053-.025A2.125,2.125,0,0,1,17.808,84a2.068,2.068,0,0,1-1.358-.575l-.178-.173c-.087-.186-.146-.264-.241-.446h-.465A6.712,6.712,0,0,0,16,83.8l.157.26a2.174,2.174,0,0,0,.662.516,1.947,1.947,0,0,0,.446.178,2.489,2.489,0,0,0,1.041-.036,2.461,2.461,0,0,0,.685-.247c.211-.144.421-.26.59-.381l.222.18.44.357c.216.171.328.237.539.412.25.178.36.271.594.446a1.434,1.434,0,0,0,.861.343.707.707,0,0,0,.478-.237l.214-.266.112-.214.044-.072.123.137c-.1.148-.14.22-.241.351a.841.841,0,0,0-.123.728,1.469,1.469,0,0,0,.618.675c.144.1.209.142.36.237s.264.154.434.262c.829.52,1.248.766,2.128,1.231m-6.628-5.7-.209-.239-.1-.15.013-.051.188-.059.112.3Zm6.736,2.261c-.205-.33-.33-.489-.541-.835.3-.171.457-.275.74-.461.22.349.319.512.554.833-.311.192-.457.286-.753.463M35.335,89.1c-.279-.258-.425-.4-.715-.675.247-.256.374-.366.624-.624.277.273.4.412.7.677-.233.262-.368.37-.613.622M23.713,83.421c-.188-.353-.288-.518-.463-.873l.774-.383c.182.345.271.505.47.854-.3.161-.461.239-.78.4M16.89,82.49c-.059-.152-.076-.228-.144-.376l.286-.241.129-.123c.319-.326.895-1.072,1.745-2.2.112-.184.345-.474.634-.865.106-.049.258-.1.444-.163.087-.036.381-.137.89-.281-.438.588-.637.869-1.051,1.468-.169.241-.465.649-.865,1.2a8.24,8.24,0,0,1-.785.971,1.31,1.31,0,0,1-.541.4c-.152.059-.391.112-.742.207m35.9,7.045c-.345-.129-.541-.184-.884-.328.118-.328.178-.484.313-.825.345.137.525.209.852.321-.1.336-.163.5-.281.831m-3.384,3.82a9.474,9.474,0,0,0,.928.389c-.167.321-.271.491-.45.8-.345-.142-.537-.222-.9-.391.165-.317.241-.478.421-.793m-.345.5c-.195.3-.254.463-.436.785-.389-.169-.582-.256-.941-.417a8.108,8.108,0,0,1,.434-.8c.36.184.539.26.943.427m-3.354-.429c.374.186.541.277.914.467-.18.292-.283.45-.463.757-.374-.18-.569-.279-.914-.465.18-.317.271-.461.463-.759m9.79-1.8a3.41,3.41,0,0,1-1.722.948c-1.182.167-1.764.233-2.963.332h-.165c-1,.076-1.483.106-2.483.123-.195,0-.3.013-.51.013-.975.008-1.483,0-2.487-.059H45.11L44.9,92.97a2.571,2.571,0,0,1-.912,1.5,2.228,2.228,0,0,1-1.641.44,1.717,1.717,0,0,1-.818-.29c-.224-.142-.319-.241-.319-.311,0-.03.142-.04.438-.04a4.791,4.791,0,0,0,1.026-.11,2.983,2.983,0,0,0,1.212-.56,1.627,1.627,0,0,0,.522-.749,2.236,2.236,0,0,1-.569-.372c.047-.474.059-.713.089-1.193a2.267,2.267,0,0,0,.721.525c.207.108.116.15.567.167.525.028.793.028,1.3.04a1.607,1.607,0,0,0-.076-.6,1.332,1.332,0,0,0-.434-.508c.209-.393.33-.594.51-1a3.362,3.362,0,0,1,.374.518,3.565,3.565,0,0,1,.315,1.588h.434c.192,0,.3-.006.525-.006.357-.013.537-.013.9-.021a3.231,3.231,0,0,1,.389-.023h.015a1.019,1.019,0,0,0-.4-.643l-.03-.013c.15-.376.239-.577.4-.96l.4.484h.013a2.788,2.788,0,0,1,.2.493l.061.366.027.013.015.209c.165,0,.256,0,.421-.013l.18-.032c.192-.015.286-.015.493-.038.838-.074,1.258-.112,2.1-.239a1.883,1.883,0,0,0-2.276-.25,2.129,2.129,0,0,1,.389-.85,1.373,1.373,0,0,1,.778-.393,2.264,2.264,0,0,1,1.108.29,10.27,10.27,0,0,1,1.032.624c.2.108.286.159.33.178a.889.889,0,0,0,.328.135,1.406,1.406,0,0,0,.421.053l.286-.027s-.091.1-.241.264m17.081-9.737a2.047,2.047,0,0,0-1.1.321,1.176,1.176,0,0,0-.446.7,1.941,1.941,0,0,0,.118.848,1.8,1.8,0,0,1,2-.884c-.478.387-.749.582-1.256.952h-.015l-.015.027-.044.034-.017.011L71.8,83.9a1.446,1.446,0,0,1-1.33.353,6.317,6.317,0,0,1-.584-.345,7.819,7.819,0,0,0-.945-.444,3.5,3.5,0,0,1-.673-.33l.059-.061c.749-1.195,1.108-1.781,1.781-3-.165-.345-.239-.5-.4-.842-.628,1.17-.973,1.745-1.69,2.891-.18.283-.315.541-.436.776a.61.61,0,0,0,.271.711c.389.186.584.277.988.446l.315.144a1.337,1.337,0,0,1,.641.427l.108.387a.536.536,0,0,1-.224.351c-.389.25-.6.362-.975.622l-.089.053-.226.146a1.682,1.682,0,0,0-.567-.459.84.84,0,0,0-.675-.057l-.195.256a1.393,1.393,0,0,0-.044.554l.044.366a.752.752,0,0,0,.121.391.648.648,0,0,0,.675.3,1.914,1.914,0,0,0,.778-.279l-.061.051a2.042,2.042,0,0,1-.015,1.237,1.768,1.768,0,0,1-.808,1.026l-.224.093c-.18.036-.271.066-.451.116a1.617,1.617,0,0,0-.089.406,7.041,7.041,0,0,0,1.017-.11.638.638,0,0,0,.269-.076,1.481,1.481,0,0,0,.628-.4l.256-.355a2.3,2.3,0,0,0,.18-.926,2.335,2.335,0,0,0-.074-.662c-.089-.245-.15-.446-.226-.643l.286-.184.076-.051c.389-.233.567-.362.941-.6a.956.956,0,0,0,.33-.45,1.99,1.99,0,0,0,.121-.649,2.2,2.2,0,0,0,.776.04,1.538,1.538,0,0,0,.751-.307l.207-.154c.66-.486.988-.736,1.616-1.222a3.093,3.093,0,0,0,.945-1.555,1.732,1.732,0,0,0,.044-.326l-.211.152a1.369,1.369,0,0,1-.357.146.963.963,0,0,1-.345.057c-.044,0-.15,0-.357,0a10.455,10.455,0,0,0-1.167-.021m-4.926,4.721c-.135.063-.209.063-.239.034l.03-.184a.678.678,0,0,1,.3-.013l.165.076Zm-7.574,2.316c-.389-.055-.584-.082-.988-.131.059-.336.074-.491.106-.827.4.047.6.074,1,.108-.059.336-.074.493-.118.85m-1.138.4c-.389-.04-.6-.055-1.017-.1.059-.347.074-.5.133-.844.389.061.615.072,1,.114a7.306,7.306,0,0,1-.121.829m7.5-1.967-.015-.013-.135-.082a2.525,2.525,0,0,0-.51-.231c-.374-.112-.673-.222-.9-.3l-.167.063a1.336,1.336,0,0,0-.4.935,2.541,2.541,0,0,0-.059.332v.019c-.017.178-.047.326-.061.438-.03.142-.044.218-.074.347l-.015.021c0,.042-.047.114-.209.207l-.3.176c-.121.055-.165.1-.3.171l-.163-.171L62.878,89a2.686,2.686,0,0,0-.482-.326v-.011l-.613-.2c.032.4.047.586.076.983h.015a1.206,1.206,0,0,1,.764.351c-.6.283-.882.431-1.512.689a18.506,18.506,0,0,1-1.961.732,3.96,3.96,0,0,1-1.121.165,1.061,1.061,0,0,1-.854-.347c-.345-.239-.569-1.153-.569-1.153a5.213,5.213,0,0,0-.165.723,1.353,1.353,0,0,0,.106.8,1.5,1.5,0,0,0,1.227.912,3.8,3.8,0,0,0,1.751-.167c.256-.08.389-.129.643-.218a18.887,18.887,0,0,0,4.177-1.967A1.775,1.775,0,0,0,65,89.429a1.163,1.163,0,0,0,.2-.5,2.462,2.462,0,0,0,1.436-.522l.059-.051c.478-.406-.226-.969-.254-1m-.988.556a1.852,1.852,0,0,1-.45.068l.015-.218.076-.184a3.049,3.049,0,0,1,.628.218ZM54.674,93.363c.734-.3,1.093-.461,1.8-.774a1.053,1.053,0,0,1-.36.571c-.269.173-1.645.609-1.764.736.131-.209.207-.315.328-.533M88.937,60.209c2.005-1.136,2.633-3.934,2.633-3.934s-3.1-.326-4.968,1.167A7.565,7.565,0,0,0,84.836,59.9a40.419,40.419,0,0,0,.84-5.573,8.972,8.972,0,0,0,4.052-1.912c1.753-1.432,1.889-4.253,1.889-4.253s-3.041.239-4.6,2a7.839,7.839,0,0,0-1.273,2.6,42.714,42.714,0,0,0-.209-5.71,9.051,9.051,0,0,0,3.669-2.568,6.531,6.531,0,0,0,1.121-4.441s-2.9.77-4.1,2.72a7.852,7.852,0,0,0-.838,3.024,45.742,45.742,0,0,0-1.229-5.928,8.778,8.778,0,0,0,3.175-3.164,6.413,6.413,0,0,0,.36-4.471s-2.7,1.241-3.519,3.356a8.636,8.636,0,0,0-.286,3.38A42.711,42.711,0,0,0,81.585,33a8.44,8.44,0,0,0,2.576-3.589,6.285,6.285,0,0,0-.419-4.391A7.688,7.688,0,0,0,80.9,28.891a8.207,8.207,0,0,0,.3,3.257,40.693,40.693,0,0,0-3.249-5.427,8.6,8.6,0,0,0,1.827-3.868A6.064,6.064,0,0,0,78.652,18.7a7.537,7.537,0,0,0-2.094,4.2,7.643,7.643,0,0,0,.7,2.887,30.138,30.138,0,0,0-4.01-4.4A8.681,8.681,0,0,0,74.4,17.248a5.922,5.922,0,0,0-1.766-3.809s-1.618,2.3-1.332,4.427a8.6,8.6,0,0,0,1.451,3.075,45.107,45.107,0,0,0-5-3.93,8.634,8.634,0,0,0,.478-4.274,5.766,5.766,0,0,0-2.35-3.365,7.354,7.354,0,0,0-.569,4.494,9.431,9.431,0,0,0,2.155,2.959c-1.138-.751-2.261-1.4-3.278-1.946a5.434,5.434,0,0,0-2.6-2.367,6.559,6.559,0,0,0-2.815.044c-1.438-.47-2.259-.641-2.2-.668a10.187,10.187,0,0,0,1.931.725l-.106.011a6.373,6.373,0,0,0,2.561,2.4,4.37,4.37,0,0,0,3.052.087,41.835,41.835,0,0,1,4.16,2.65,9.49,9.49,0,0,0-3.815-.785c-2.052.277-3.712,2.47-3.712,2.47a5.533,5.533,0,0,0,3.98.681,7.62,7.62,0,0,0,3.562-2.354,44.883,44.883,0,0,1,4.147,3.409A8.042,8.042,0,0,0,68.9,20.6a5.676,5.676,0,0,0-3.549,2.1s2.335,1.489,4.37,1.045a7.8,7.8,0,0,0,2.815-1.679c.089-.121.212-.258.315-.4A33.243,33.243,0,0,1,77.935,27.7a9.861,9.861,0,0,0-3.414-2.123c-2.111-.448-4.49,1.079-4.49,1.079a5.872,5.872,0,0,0,3.653,2.107,7.877,7.877,0,0,0,4.3-.979,40.81,40.81,0,0,1,3.141,5.744,8.514,8.514,0,0,0-2.709-2.333c-2.035-.829-4.7.262-4.7.262a5.908,5.908,0,0,0,3.293,2.788,8.417,8.417,0,0,0,4.372-.15,47.162,47.162,0,0,1,2.066,5.966,8.289,8.289,0,0,0-2.2-2.618c-1.884-1.216-4.761-.592-4.761-.592a6.213,6.213,0,0,0,2.845,3.407,8.224,8.224,0,0,0,4.325.641A39.829,39.829,0,0,1,84.73,47.2a8.581,8.581,0,0,0-1.781-3.086c-1.675-1.555-4.67-1.464-4.67-1.464s.419,2.737,2.274,3.934A8.9,8.9,0,0,0,84.8,48.039a37.111,37.111,0,0,1-.03,6.32,9.63,9.63,0,0,0-1.256-3.443c-1.438-1.868-4.463-2.307-4.463-2.307s-.044,2.813,1.6,4.37A8.815,8.815,0,0,0,84.7,55.19a35.724,35.724,0,0,1-1.049,5.531l-.042.207a8.846,8.846,0,0,0-.66-3.367c-1.123-2.14-4.086-3.137-4.086-3.137s-.522,2.826.867,4.691a8.99,8.99,0,0,0,3.593,2.925,35.532,35.532,0,0,1-1.992,5.522,9.341,9.341,0,0,0-.057-3.579c-.749-2.354-3.564-3.892-3.564-3.892s-1.032,2.741.044,4.856a9.605,9.605,0,0,0,3.1,3.614,37.751,37.751,0,0,1-2.768,4.765,8.285,8.285,0,0,0,.434-3.266c-.345-2.5-2.889-4.556-2.889-4.556s-1.512,2.563-.778,4.883a9.755,9.755,0,0,0,2.409,4.1c-.133.2-.283.379-.431.577-1.153-.656-2.293-1.309-3.4-1.971l-.51-.315-.36.482C66.617,81.092,56.65,85.9,45.889,86.147a33.256,33.256,0,0,1-26.871-13.1l-.36-.491-.512.307c-1.144.692-2.3,1.36-3.471,2.047l-.309-.419a9.932,9.932,0,0,0,2.413-4.1c.709-2.32-.785-4.883-.785-4.883s-2.565,2.056-2.91,4.556a8.609,8.609,0,0,0,.45,3.266,38.875,38.875,0,0,1-2.779-4.765,9.624,9.624,0,0,0,3.1-3.614c1.081-2.115.059-4.856.059-4.856S11.1,61.63,10.351,63.984a9.384,9.384,0,0,0-.068,3.579A36.405,36.405,0,0,1,8.3,62.041a9.064,9.064,0,0,0,3.6-2.925c1.4-1.865.865-4.691.865-4.691s-2.976,1-4.095,3.137a8.991,8.991,0,0,0-.649,3.371l-.047-.211A33.122,33.122,0,0,1,6.937,55.19a8.914,8.914,0,0,0,4.029-2.212c1.648-1.557,1.6-4.37,1.6-4.37s-3.033.44-4.467,2.307A9.588,9.588,0,0,0,6.853,54.38a37.6,37.6,0,0,1-.038-6.341,8.893,8.893,0,0,0,4.255-1.453c1.865-1.2,2.271-3.934,2.271-3.934s-2.991-.091-4.685,1.464a9.265,9.265,0,0,0-1.783,3.077,42.722,42.722,0,0,1,1.1-6.3,8.233,8.233,0,0,0,4.321-.641,6.231,6.231,0,0,0,2.847-3.407s-2.878-.624-4.761.592a8.2,8.2,0,0,0-2.193,2.618,42.157,42.157,0,0,1,2.085-5.966,8.281,8.281,0,0,0,4.348.15,6.019,6.019,0,0,0,3.3-2.788s-2.673-1.091-4.691-.262a8.5,8.5,0,0,0-2.711,2.333,40.786,40.786,0,0,1,3.134-5.744,7.843,7.843,0,0,0,4.289.979,5.829,5.829,0,0,0,3.655-2.107s-2.409-1.527-4.488-1.079a9.633,9.633,0,0,0-3.4,2.117A32.558,32.558,0,0,1,18.639,21.8a8.056,8.056,0,0,0,3.5,1.844,5.6,5.6,0,0,0,3.974-1.015s-1.851-2.1-3.93-2.246a6.744,6.744,0,0,0-2.692.62,45.7,45.7,0,0,1,3.932-3.223,7.8,7.8,0,0,0,3.564,2.354,5.568,5.568,0,0,0,3.991-.681s-1.673-2.193-3.714-2.47a9.159,9.159,0,0,0-3.82.785,39.078,39.078,0,0,1,4.124-2.612,4.293,4.293,0,0,0,2.929-.125,6.38,6.38,0,0,0,2.57-2.4h-.015a10.326,10.326,0,0,0,2.009-.736c.057.027-.806.2-2.276.685a6.843,6.843,0,0,0-2.912-.061A5.592,5.592,0,0,0,27.224,15c-.983.522-2.007,1.121-3.1,1.821a8.434,8.434,0,0,0,2.166-2.959,7.336,7.336,0,0,0-.539-4.494,5.648,5.648,0,0,0-2.341,3.365,7.9,7.9,0,0,0,.467,4.274,40.244,40.244,0,0,0-5,3.944,9.262,9.262,0,0,0,1.451-3.09c.288-2.128-1.332-4.427-1.332-4.427a5.92,5.92,0,0,0-1.779,3.809A8.513,8.513,0,0,0,18.383,21.4a30.13,30.13,0,0,0-4.016,4.395,7.894,7.894,0,0,0,.706-2.887c-.074-2.191-2.1-4.2-2.1-4.2a6.041,6.041,0,0,0-1.11,4.147,8.519,8.519,0,0,0,1.81,3.868,41.885,41.885,0,0,0-3.236,5.427,8.436,8.436,0,0,0,.279-3.257,7.6,7.6,0,0,0-2.823-3.866,6.292,6.292,0,0,0-.427,4.391A8.615,8.615,0,0,0,10.012,33a44.556,44.556,0,0,0-2.28,5.949,8.63,8.63,0,0,0-.271-3.38c-.848-2.115-3.521-3.356-3.521-3.356a6.4,6.4,0,0,0,.341,4.471,8.7,8.7,0,0,0,3.181,3.164,47.416,47.416,0,0,0-1.235,5.928,8.347,8.347,0,0,0-.816-3.024C4.2,40.806,1.3,40.036,1.3,40.036a6.543,6.543,0,0,0,1.112,4.441,9.056,9.056,0,0,0,3.674,2.568,39.756,39.756,0,0,0-.211,5.71,7.69,7.69,0,0,0-1.28-2.6C3.046,48.4,0,48.162,0,48.162s.152,2.821,1.889,4.253a9,9,0,0,0,4.061,1.912A41.022,41.022,0,0,0,6.774,59.9a7.534,7.534,0,0,0-1.753-2.458C3.156,55.949.055,56.275.055,56.275s.622,2.8,2.642,3.934a9.039,9.039,0,0,0,4.435,1.167,39.979,39.979,0,0,0,1.6,5.148,7.287,7.287,0,0,0-2.075-2c-2.126-1.155-5.188-.269-5.188-.269s1.115,2.711,3.316,3.469A9.058,9.058,0,0,0,9.41,68.1a38.251,38.251,0,0,0,2.6,4.894,8.225,8.225,0,0,0-2.538-1.736c-2.35-.768-5.26.683-5.26.683s1.574,2.523,3.942,2.87a9.218,9.218,0,0,0,4.746-.459c.26.374.529.749.8,1.106-1.59.926-3.213,1.829-4.833,2.7l-.668.355.427.641.093.118a160.593,160.593,0,0,0,7.912,14.149c1.406-1.195,2.185-1.87,3.405-2.969a46.663,46.663,0,0,0,25.773,7.713h.1a47.038,47.038,0,0,0,25.762-7.7c1.18,1.083,1.975,1.747,3.35,2.917a155.271,155.271,0,0,0,7.935-14.018l.434-.632-.675-.364c-1.66-.89-3.308-1.793-4.938-2.741.313-.425.628-.85.943-1.282a9.162,9.162,0,0,0,4.731.459c2.365-.347,3.951-2.87,3.951-2.87s-2.921-1.451-5.254-.683a8.225,8.225,0,0,0-2.544,1.736A45.182,45.182,0,0,0,82.23,68.1a8.952,8.952,0,0,0,4.6-.372c2.2-.757,3.323-3.469,3.323-3.469s-3.054-.886-5.18.269a7.2,7.2,0,0,0-2.081,2,36.362,36.362,0,0,0,1.6-5.148,9.059,9.059,0,0,0,4.448-1.167m-7.514,19.02C73.8,90.053,60.258,96.762,45.916,96.787h-.1c-14.426,0-28-6.8-35.648-17.783,2.754-1.478,5.476-3.05,8.166-4.636A34.559,34.559,0,0,0,45.916,87.52c10.943-.247,21.137-5.061,27.347-12.941,2.652,1.593,5.406,3.16,8.16,4.651M39.956,27.712l.03.021c-.03-.226-.131-.645.008-.827a1.574,1.574,0,0,1,.935.4,2.162,2.162,0,0,1,.573.783,1.78,1.78,0,0,1,.14.514,3.316,3.316,0,0,0,.548,1.468c.687,1.024,1.961,1.531,3.727,1.4l.15-.019.15.127c.15.14.315.319.463.461a2.186,2.186,0,0,1,.465.719l.032.161c.643-.25,1.3-.527,1.973-.78a11.548,11.548,0,0,1-2.288-1.667l-.286-.383a.728.728,0,0,1-.15-.505,4.723,4.723,0,0,0,3.849-3.257,6.352,6.352,0,0,1-1.933.436,6.751,6.751,0,0,1-2.14-.169.776.776,0,0,1,.061-.554,5.206,5.206,0,0,1,.806-1.2,7.753,7.753,0,0,0-2.305.607,2.122,2.122,0,0,0-1.345,1.574,3.208,3.208,0,0,0-1.428-1.055,1.9,1.9,0,0,0-1.07-.042,2.281,2.281,0,0,0-.806.434c-.159-.14-.108-.525-.017-.7a1.128,1.128,0,0,0,1.472-.683,1.414,1.414,0,0,0-1.091.085l.195-.379.07-.11.178.127a.975.975,0,0,0,.67.114,1.73,1.73,0,0,0,.755-.351.814.814,0,0,0-.628-.44,2.228,2.228,0,0,0,1.514-.751.8.8,0,0,0-.527-.3,1.54,1.54,0,0,0-.939.3,6,6,0,0,0-.654.586,1.889,1.889,0,0,0-.15-.937.86.86,0,0,0-.626.493.974.974,0,0,0,.186.867,3.087,3.087,0,0,0-.317.48,1.163,1.163,0,0,0-.391-.9.742.742,0,0,0-.417.8,1.748,1.748,0,0,0,.457.785c-.169.571-.457,1.882.1,2.274m1.394-1.476.178.1-.2.07-.173-.108Z" transform="translate(0 0)" fill="#fff" fill-rule="evenodd"/>
  </g>
</svg>
