<svg xmlns="http://www.w3.org/2000/svg" width="24.323" height="24.323" viewBox="0 0 24.323 24.323">
  <path id="instagram" d="M12.162,0c-3.3,0-3.716.015-5.014.073A8.976,8.976,0,0,0,4.2.638a5.951,5.951,0,0,0-2.155,1.4A5.946,5.946,0,0,0,.638,4.2,8.958,8.958,0,0,0,.073,7.148C.012,8.446,0,8.858,0,12.162s.015,3.716.073,5.014a8.98,8.98,0,0,0,.566,2.952,5.965,5.965,0,0,0,1.4,2.155,5.947,5.947,0,0,0,2.155,1.4,8.987,8.987,0,0,0,2.952.566c1.3.061,1.71.073,5.014.073s3.716-.015,5.014-.073a9,9,0,0,0,2.952-.566,6.215,6.215,0,0,0,3.557-3.557,8.98,8.98,0,0,0,.566-2.952c.061-1.3.073-1.709.073-5.014s-.015-3.716-.073-5.014A8.99,8.99,0,0,0,23.685,4.2a5.969,5.969,0,0,0-1.4-2.155,5.926,5.926,0,0,0-2.155-1.4A8.945,8.945,0,0,0,17.175.073C15.878.012,15.465,0,12.162,0Zm0,2.189c3.246,0,3.633.016,4.915.072a6.705,6.705,0,0,1,2.257.42,4,4,0,0,1,2.309,2.307,6.706,6.706,0,0,1,.418,2.257c.058,1.283.071,1.668.071,4.915s-.015,3.633-.075,4.915a6.84,6.84,0,0,1-.426,2.257,3.861,3.861,0,0,1-.911,1.4,3.794,3.794,0,0,1-1.4.908,6.756,6.756,0,0,1-2.265.418c-1.291.058-1.672.071-4.924.071s-3.634-.015-4.924-.075a6.9,6.9,0,0,1-2.266-.426,3.766,3.766,0,0,1-1.4-.911,3.693,3.693,0,0,1-.912-1.4A6.919,6.919,0,0,1,2.2,17.053c-.046-1.277-.061-1.672-.061-4.909S2.159,8.51,2.2,7.218A6.894,6.894,0,0,1,2.63,4.954a3.6,3.6,0,0,1,.912-1.4,3.6,3.6,0,0,1,1.4-.91,6.732,6.732,0,0,1,2.251-.426c1.292-.046,1.672-.061,4.924-.061l.046.03Zm0,3.728a6.245,6.245,0,1,0,6.245,6.245A6.245,6.245,0,0,0,12.162,5.917Zm0,10.3a4.054,4.054,0,1,1,4.054-4.054A4.053,4.053,0,0,1,12.162,16.215ZM20.113,5.671a1.461,1.461,0,0,1-2.919,0,1.459,1.459,0,1,1,2.919,0Z" fill="#484848"/>
</svg>
