<svg xmlns="http://www.w3.org/2000/svg" width="28.11" height="28.11" viewBox="0 0 28.11 28.11">
  <path id="instagram" d="M18.74,14.055A4.687,4.687,0,0,0,14.055,9.37,4.687,4.687,0,0,0,9.37,14.055a4.687,4.687,0,0,0,4.685,4.685,4.687,4.687,0,0,0,4.685-4.685Zm2.525,0a7.185,7.185,0,0,1-7.21,7.21,7.185,7.185,0,0,1-7.21-7.21,7.185,7.185,0,0,1,7.21-7.21,7.185,7.185,0,0,1,7.21,7.21Zm1.976-7.5a1.684,1.684,0,1,1-2.873-1.189,1.684,1.684,0,0,1,2.873,1.189ZM14.055,2.525l-1.4-.009q-1.272-.009-1.931,0t-1.766.055a14.432,14.432,0,0,0-1.885.183,7.273,7.273,0,0,0-1.308.34A4.786,4.786,0,0,0,3.093,5.765a7.344,7.344,0,0,0-.339,1.309,14.432,14.432,0,0,0-.183,1.885q-.045,1.107-.055,1.766t0,1.931q.009,1.272.009,1.4t-.009,1.4q-.009,1.272,0,1.931t.055,1.766a14.432,14.432,0,0,0,.183,1.885,7.3,7.3,0,0,0,.339,1.307,4.786,4.786,0,0,0,2.672,2.672,7.344,7.344,0,0,0,1.309.339,14.433,14.433,0,0,0,1.885.183q1.107.045,1.766.055t1.931,0l1.4-.009,1.4.009q1.272.009,1.931,0t1.766-.055a14.431,14.431,0,0,0,1.885-.183,7.345,7.345,0,0,0,1.309-.339,4.786,4.786,0,0,0,2.672-2.672,7.344,7.344,0,0,0,.339-1.309,14.433,14.433,0,0,0,.183-1.885q.045-1.107.055-1.766t0-1.931q-.009-1.272-.009-1.4t.009-1.4q.009-1.272,0-1.931t-.055-1.766a14.431,14.431,0,0,0-.183-1.885,7.2,7.2,0,0,0-.34-1.307,4.786,4.786,0,0,0-2.672-2.672,7.344,7.344,0,0,0-1.309-.339,14.432,14.432,0,0,0-1.885-.183q-1.107-.045-1.766-.055t-1.931,0l-1.4.009ZM28.11,14.055q0,4.191-.091,5.8A8.584,8.584,0,0,1,25.75,25.75a8.584,8.584,0,0,1-5.893,2.269q-1.611.091-5.8.091t-5.8-.091A8.584,8.584,0,0,1,2.36,25.75,8.584,8.584,0,0,1,.091,19.857Q0,18.246,0,14.055t.091-5.8A8.584,8.584,0,0,1,2.36,2.36,8.584,8.584,0,0,1,8.254.091Q9.864,0,14.055,0t5.8.091A8.584,8.584,0,0,1,25.75,2.36a8.584,8.584,0,0,1,2.269,5.893Q28.11,9.864,28.11,14.055Z" fill="#fff"/>
</svg>
