<svg xmlns="http://www.w3.org/2000/svg" width="27.785" height="27.72" viewBox="0 0 27.785 27.72">
  <path id="linkedin-box" d="M23.621,23.806V15.932a4.887,4.887,0,0,0-4.88-4.88,3.931,3.931,0,0,0-1.952.553,4.058,4.058,0,0,0-1.5,1.4V11.311H11.127V23.8h4.164V16.453a2.058,2.058,0,0,1,.586-1.464,1.933,1.933,0,0,1,1.464-.618,2.039,2.039,0,0,1,1.5.618,2,2,0,0,1,.618,1.464v7.353ZM6.247,8.97a2.5,2.5,0,0,0,1.79-.716A2.334,2.334,0,0,0,8.785,6.5a2.448,2.448,0,0,0-.748-1.79,2.436,2.436,0,0,0-1.79-.748,2.444,2.444,0,0,0-1.79.748A2.444,2.444,0,0,0,3.709,6.5a2.331,2.331,0,0,0,.748,1.757A2.508,2.508,0,0,0,6.247,8.97ZM8.329,23.806V11.312H4.164V23.806H8.329ZM24.987.25a2.7,2.7,0,0,1,1.985.814,2.622,2.622,0,0,1,.813,1.919V25.237a2.623,2.623,0,0,1-.814,1.919,2.7,2.7,0,0,1-1.984.814H2.8a2.7,2.7,0,0,1-1.985-.814A2.622,2.622,0,0,1,0,25.237V2.983A2.623,2.623,0,0,1,.814,1.064,2.7,2.7,0,0,1,2.8.25Z" transform="translate(0 -0.25)" fill="#fff"/>
</svg>
