<svg xmlns="http://www.w3.org/2000/svg" width="24.312" height="24.312" viewBox="0 0 24.312 24.312">
  <path id="linkedin-rect" d="M4.771.009A4.779,4.779,0,0,0,.007,4.774V19.558a4.778,4.778,0,0,0,4.765,4.763H19.556a4.777,4.777,0,0,0,4.763-4.763V4.774A4.778,4.778,0,0,0,19.556.009Zm1.2,4.012a1.914,1.914,0,1,1-.024,3.817H5.922A1.914,1.914,0,1,1,5.97,4.021ZM16.8,9.088c2.416,0,4.227,1.579,4.227,4.973V20.4H17.351v-5.91c0-1.485-.531-2.5-1.86-2.5a2.011,2.011,0,0,0-1.884,1.342,2.507,2.507,0,0,0-.121.9V20.4H9.813s.048-10.012,0-11.048h3.672v1.565a3.645,3.645,0,0,1,3.309-1.824Zm-12.686.26H7.781V20.4H4.109V9.348Z" transform="translate(-0.007 -0.009)" fill="#484848"/>
</svg>
