<svg xmlns="http://www.w3.org/2000/svg" width="16.855" height="16.855" viewBox="0 0 16.855 16.855">
  <path id="phone" d="M3.38,7.287a13.77,13.77,0,0,0,6.189,6.189l2.063-2.063a.805.805,0,0,1,.966-.22,10.48,10.48,0,0,0,3.336.527.915.915,0,0,1,.636.264.859.859,0,0,1,.285.658v3.292a.979.979,0,0,1-.922.921,15.667,15.667,0,0,1-8.011-2.129A15.724,15.724,0,0,1,2.129,8.932,15.667,15.667,0,0,1,0,.922.881.881,0,0,1,.285.286.883.883,0,0,1,.922,0H4.214a.858.858,0,0,1,.658.285.918.918,0,0,1,.264.636,10.48,10.48,0,0,0,.527,3.336.9.9,0,0,1-.22.966Z" fill="#fff"/>
</svg>
