<svg xmlns="http://www.w3.org/2000/svg" width="37.765" height="28.324" viewBox="0 0 37.765 28.324">
  <path id="quoteup" d="M33.045,16.522H28.324v4.721a2.283,2.283,0,0,0,.682,1.678,2.253,2.253,0,0,0,1.66.682,2.393,2.393,0,0,1,2.379,2.379,2.231,2.231,0,0,1-.7,1.66,2.294,2.294,0,0,1-1.66.682H25.964a3.143,3.143,0,0,1-2.25-1.18,9.228,9.228,0,0,1-1.789-2.84,8.113,8.113,0,0,1-.682-3.061V4.721a4.551,4.551,0,0,1,1.383-3.338A4.543,4.543,0,0,1,25.964,0h7.081a4.551,4.551,0,0,1,3.338,1.383,4.543,4.543,0,0,1,1.383,3.338V11.8a4.721,4.721,0,0,1-4.721,4.721Zm-21.243,0H7.081v4.721a2.329,2.329,0,0,0,2.36,2.36,2.245,2.245,0,0,1,1.678.7,2.324,2.324,0,0,1,.682,1.678,2.328,2.328,0,0,1-2.36,2.341H4.721a3.172,3.172,0,0,1-2.231-1.18A9.066,9.066,0,0,1,.682,24.3,8.086,8.086,0,0,1,0,21.243V4.721A4.551,4.551,0,0,1,1.383,1.383,4.543,4.543,0,0,1,4.721,0H11.8A4.551,4.551,0,0,1,15.14,1.383a4.543,4.543,0,0,1,1.383,3.338V11.8A4.721,4.721,0,0,1,11.8,16.522Z" transform="translate(37.765 28.324) rotate(180)" fill="#6f6f6f" opacity="0.21"/>
</svg>
