<svg xmlns="http://www.w3.org/2000/svg" width="28.11" height="23.425" viewBox="0 0 28.11 23.425">
  <path id="__TEMP__SVG__" d="M28.11,5.741a7.555,7.555,0,0,1-1.049,1.5,7.748,7.748,0,0,1-1.9,1.6q.032.251.047.47a17.057,17.057,0,0,1-1.206,6.534,17.206,17.206,0,0,1-6.847,8.508A18,18,0,0,1,6.44,26.314,12.306,12.306,0,0,1,0,23.823a12,12,0,0,0,8.587-2.476c-2.635.066-4.549-1.839-5.453-4.042a3.667,3.667,0,0,0,1.222.062,11.37,11.37,0,0,0,1.379-.188,6.464,6.464,0,0,1-3.918-3.04,6.553,6.553,0,0,1-.658-2.883,5.506,5.506,0,0,0,2.6.783A6.72,6.72,0,0,1,1.206,7.886a7.689,7.689,0,0,1,.705-3.745A19.7,19.7,0,0,0,8.6,9.155a13.86,13.86,0,0,0,5.249,1.1,7.015,7.015,0,0,1,.705-4.45A6.063,6.063,0,0,1,18.176,3.17a5.342,5.342,0,0,1,5.359,1.661,9.539,9.539,0,0,0,3.729-1.379,5.658,5.658,0,0,1-2.57,3.322A16.3,16.3,0,0,0,28.11,5.74Z" transform="translate(0 -2.999)" fill="#fff"/>
</svg>
