<svg xmlns="http://www.w3.org/2000/svg" width="24.323" height="20.269" viewBox="0 0 24.323 20.269">
  <path id="twitter" d="M24.323,5.371a6.537,6.537,0,0,1-.908,1.3,6.7,6.7,0,0,1-1.64,1.383q.027.217.041.407a14.759,14.759,0,0,1-1.044,5.654,14.887,14.887,0,0,1-5.925,7.362,15.578,15.578,0,0,1-9.274,1.695A10.648,10.648,0,0,1,0,21.017a10.384,10.384,0,0,0,7.43-2.142,5.118,5.118,0,0,1-4.718-3.5,3.173,3.173,0,0,0,1.057.054,9.838,9.838,0,0,0,1.193-.163,5.593,5.593,0,0,1-3.39-2.63A5.67,5.67,0,0,1,1,10.143a4.764,4.764,0,0,0,2.251.678,5.815,5.815,0,0,1-2.21-3.593,6.653,6.653,0,0,1,.61-3.24,17.042,17.042,0,0,0,5.79,4.338,11.993,11.993,0,0,0,4.542.949,6.07,6.07,0,0,1,.61-3.85,5.246,5.246,0,0,1,3.132-2.278,4.622,4.622,0,0,1,4.637,1.437,8.253,8.253,0,0,0,3.227-1.193,4.9,4.9,0,0,1-2.224,2.874,14.1,14.1,0,0,0,2.955-.895Z" transform="translate(0 -2.999)" fill="#484848"/>
</svg>
